<svg width="360" height="261" viewBox="0 0 360 261" fill="none" xmlns="http://www.w3.org/2000/svg">
<path fill-rule="evenodd" clip-rule="evenodd" d="M154.7 0.205517C154.075 0.831395 154.399 1.79522 155.184 1.64519C155.62 1.56032 155.979 1.20419 155.979 0.854126C155.979 0.135806 155.176 -0.270332 154.7 0.205517ZM88.9302 2.64083C88.9302 3.24701 89.2332 3.5501 89.8391 3.5501C90.4451 3.5501 90.748 3.24701 90.748 2.64083C90.748 2.03466 90.4451 1.73157 89.8391 1.73157C89.2332 1.73157 88.9302 2.03466 88.9302 2.64083ZM26.4019 5.86418C26.005 6.50521 26.8821 7.38266 27.5229 6.98561C28.244 6.54007 28.1273 5.36863 27.3623 5.36863C27.0018 5.36863 26.5701 5.5914 26.4019 5.86418ZM362.579 16.298C362.579 17.3967 363.879 18.0317 364.402 17.1861C364.935 16.3223 364.432 15.3736 363.44 15.3736C362.878 15.3736 362.579 15.6949 362.579 16.298ZM295.152 19.3153C294.548 19.9184 294.867 20.8307 295.682 20.8307C296.755 20.8307 297.12 20.4488 296.814 19.6502C296.556 18.9788 295.666 18.8 295.152 19.3153ZM247.151 21.2656C246.398 21.7309 246.836 23.1039 247.738 23.1039C248.094 23.1039 248.498 22.8129 248.634 22.4553C248.965 21.596 247.944 20.7761 247.151 21.2656ZM363.261 31.119C319.5 35.7487 284.636 64.4285 273.996 104.55C269.771 120.482 270.871 142.687 276.635 157.856L277.118 159.129L293.825 158.866L310.531 158.604L327.577 161.496C338.943 163.423 345.035 164.272 345.857 164.04C347.814 163.491 377.476 139.452 378.358 137.7C378.8 136.821 378.932 129.662 378.937 106.044L378.943 75.523L379.959 74.2107C380.518 73.4893 384.004 69.3764 387.706 65.0725C397.51 53.6703 397.71 53.69 405.236 66.7607L410.082 75.173L410.309 88.9726L410.536 102.772L411.9 103.863C415.616 106.835 416.72 105.809 426.759 90.0546L435.083 76.9915L434.965 64.4861C434.812 48.2314 435.181 49.7393 430.651 46.9145C411.279 34.8364 385.417 28.7746 363.261 31.119ZM409.703 32.048C409.164 32.586 409.381 33.9135 410.049 34.1696C410.879 34.4894 411.854 33.3301 411.511 32.4329C411.238 31.7237 410.238 31.5115 409.703 32.048ZM-69.9423 38.1113C-70.3225 38.7266 -69.809 39.4752 -69.0061 39.4752C-68.6455 39.4752 -68.3502 39.066 -68.3502 38.5659C-68.3502 37.6248 -69.4469 37.3111 -69.9423 38.1113ZM204.219 54.7266C204.063 55.1312 204.246 55.5404 204.655 55.6965C205.504 56.0223 206.432 55.2146 206.005 54.522C205.56 53.7992 204.53 53.9174 204.219 54.7266ZM10.3764 60.7353C10.4597 61.1718 10.8308 61.531 11.1989 61.531C11.567 61.531 11.9367 61.1718 12.0215 60.7353C12.1291 60.1761 11.8836 59.9382 11.1989 59.9382C10.5142 59.9382 10.2688 60.1761 10.3764 60.7353ZM455.765 70.6039C455.765 71.8254 456.766 73.4772 457.86 74.0621C459.573 74.979 459.61 74.2773 457.965 72.0421C456.382 69.8901 455.765 69.487 455.765 70.6039ZM102.112 111.338C98.6449 113.809 98.6904 113.796 95.9182 113.13C90.2663 111.774 84.1993 115.697 82.38 121.885C82.2528 122.315 81.5787 122.805 80.8803 122.972C80.182 123.14 78.8035 123.863 77.8173 124.576L76.0222 125.877H97.2497H118.476L118.47 120.306C118.462 114.64 117.426 111.78 115.381 111.78C115.119 111.78 114.627 111.524 114.287 111.212C111.556 108.702 105.725 108.763 102.112 111.338ZM235.301 127.924C235.301 128.298 235.505 128.606 235.755 128.606C236.005 128.606 236.21 128.298 236.21 127.924C236.21 127.548 236.005 127.242 235.755 127.242C235.505 127.242 235.301 127.548 235.301 127.924ZM51.1999 136.336C51.1999 136.586 51.5075 136.791 51.8816 136.791C52.2573 136.791 52.5648 136.586 52.5648 136.336C52.5648 136.086 52.2573 135.882 51.8816 135.882C51.5075 135.882 51.1999 136.086 51.1999 136.336Z" fill="#F7C7A1"/>
<path fill-rule="evenodd" clip-rule="evenodd" d="M237.57 87.6712C235.333 88.2047 233.36 89.5837 232.026 91.5508L230.782 93.3814L230.555 119.074C230.356 141.509 230.241 144.767 229.646 144.767C227.29 144.764 221.158 143.427 220.669 142.811C220.314 142.362 220.101 140.627 220.101 138.189C220.101 135.235 219.91 134.009 219.319 133.159C214.758 126.598 206.008 130.088 206.008 138.469C206.008 140.812 206.037 140.806 200.181 139.709C192.441 138.257 191.673 137.996 191.837 136.864C192.044 135.424 191.135 134.536 189.452 134.536C188.657 134.536 187.766 134.294 187.471 133.998C187.057 133.585 186.521 133.792 185.149 134.895L183.364 136.331L151.843 136.456C113.195 136.611 116.143 135.847 110.323 147.227C105.191 157.265 101.204 158.733 88.135 155.404C78.1477 152.86 76.8707 152.206 80.1276 151.311C81.2137 151.012 81.2076 150.997 79.7534 150.403C78.1749 149.757 77.7993 149.088 79.0126 149.088C80.9956 149.088 78.44 147.809 75.8815 147.519C74.3227 147.343 72.7033 146.89 72.2822 146.51C71.5929 145.887 71.4596 145.913 70.9234 146.772C70.5961 147.295 69.9857 147.724 69.5661 147.724C68.236 147.724 67.415 148.233 67.671 148.898C67.8513 149.369 67.5377 149.542 66.5045 149.542H65.0927V143.403V137.264H67.6225C71.8065 137.264 71.911 137.122 71.911 131.392C71.911 124.175 69.2298 122.457 68.7299 129.353L68.5026 132.489L66.7969 132.631L65.0927 132.772V123.978C65.0927 114.407 64.8049 113.162 62.5932 113.162C60.9466 113.162 60.7921 113.763 60.5467 121.122L60.3194 127.943L58.6289 128.082L56.9368 128.223L56.8111 122.22C56.6732 115.742 56.1991 114.516 54.2964 115.716C53.3239 116.328 52.8407 130.511 53.7556 131.613C54.0616 131.981 55.4613 132.275 57.2913 132.356L60.3194 132.489L60.4452 139.959C60.5891 148.53 60.6709 148.33 57.3655 147.445C55.0841 146.834 50.0806 146.117 40.3189 145.003C38.3193 144.775 33.9202 144.264 30.5452 143.867C27.1701 143.47 22.671 142.95 20.5457 142.711C18.4203 142.47 14.1242 141.959 10.9991 141.572C7.87398 141.186 3.68089 140.686 1.68129 140.46C-0.319824 140.234 -4.71742 139.718 -8.0925 139.311C-11.4676 138.904 -15.8652 138.392 -17.8663 138.173C-19.8659 137.954 -24.2968 137.444 -27.7128 137.043C-33.4207 136.37 -34.4493 136.37 -40.4405 137.041C-44.0246 137.444 -48.5949 137.952 -50.5945 138.17C-54.3453 138.581 -67.3108 140.057 -74.9139 140.942C-77.2891 141.218 -79.5387 141.479 -79.9144 141.519C-80.5158 141.588 -80.6097 149.077 -80.7112 205.37L-80.8263 269.141H222.144H525.115V199.75V130.361L521.137 132.507C518.95 133.688 515.87 135.361 514.293 136.226C510.881 138.095 510.115 137.961 510.115 135.497C510.115 132.292 510.16 132.262 515.131 132.262C521.393 132.262 521.023 132.972 521.023 120.932C521.023 110.368 520.845 109.525 518.601 109.525C516.394 109.525 516.023 110.867 516.023 118.87V126.394L513.183 126.259L510.342 126.123L510.221 113.428C510.094 100.072 510.054 99.8205 507.949 99.0204C504.568 97.7338 503.765 99.7599 503.757 109.601C503.753 114.172 503.572 117.241 503.303 117.331C503.056 117.415 501.368 117.38 499.552 117.256L496.25 117.028L496.022 110.757C495.783 104.135 495.604 103.636 493.479 103.62C491.285 103.605 491.022 104.658 491.022 113.469C491.022 123.675 490.599 123.089 498.087 123.266L503.522 123.395V132.713V142.032L501.705 142.915C496.03 145.67 492.496 144.484 485.597 137.502C479.962 131.799 479.765 131.705 474.771 132.337C468.122 133.178 457.727 138.376 448.293 145.579C443.739 149.056 441.427 149.506 432.367 148.681C422.072 147.743 418.553 147.198 417.95 146.443C417.103 145.381 417.255 144.996 418.518 144.996C420.077 144.996 419.945 144.317 418.25 143.614C417.066 143.123 416.963 142.965 417.593 142.612C418.805 141.935 417.597 140.881 415.979 141.206C415.136 141.374 414.655 141.283 414.655 140.953C414.655 140.66 414.08 140.477 413.336 140.534C412.612 140.589 411.697 140.368 411.305 140.042C410.708 139.546 410.396 139.605 409.381 140.404C408.714 140.928 407.763 141.357 407.268 141.357C406.603 141.357 406.427 141.586 406.595 142.23C406.762 142.87 406.533 143.177 405.739 143.376C404.247 143.75 404.38 144.408 406.018 144.769C408.383 145.287 407.73 146.381 405.223 146.101C404.035 145.967 401.428 145.672 399.427 145.444C397.427 145.216 392.007 144.699 387.381 144.293C375.383 143.243 375.365 143.238 375.194 141.474C375.03 139.798 375.442 139.619 379.881 139.428L382.607 139.311L382.736 134.035C382.842 129.628 382.742 128.658 382.129 128.149C380.703 126.965 379.903 128.164 379.653 131.854L379.426 135.218H377.381H375.335L375.206 130.102L375.079 124.986H377.851C382.533 124.986 382.38 125.286 382.38 116.119C382.38 108.757 382.318 108.16 381.505 107.724C379.507 106.654 379.199 107.413 379.199 113.402C379.199 120.267 379.143 120.438 376.877 120.438H375.107V110.053V99.6659L373.915 99.1234C372.943 98.6794 372.526 98.7082 371.651 99.2826L370.577 99.9872L370.455 112.6L370.334 125.213H369.198C368.125 125.213 368.056 125.062 367.945 122.485C367.762 118.224 367.559 117.71 366.056 117.71C364.352 117.71 364.198 118.22 364.205 123.774C364.214 129.403 364.24 129.449 367.618 129.622L370.334 129.761L370.463 135.864C370.533 139.221 370.43 142.124 370.236 142.318C369.913 142.638 367.421 142.439 352.379 140.903C345.318 140.181 329.595 138.645 324.651 138.193C322.276 137.976 316.651 137.467 312.15 137.063L303.969 136.326L288.611 139.433C280.166 141.142 273.16 142.444 273.043 142.327C272.925 142.211 272.825 132.889 272.82 121.614C272.811 102.61 272.748 100.977 271.965 99.2492C269.835 94.5574 263.065 93.9982 260.025 98.2627L258.966 99.7478L258.738 119.302L258.511 138.857L253.397 138.984L248.283 139.113V116.66V94.2073L247.226 92.2024C245.482 88.9002 241.078 86.8332 237.57 87.6712Z" fill="url(#paint0_linear)"/>
<path fill-rule="evenodd" clip-rule="evenodd" d="M83.3963 150.058C81.1589 150.591 79.1866 151.97 77.852 153.937L76.6083 155.768L76.381 181.461C76.1826 203.895 76.0675 207.154 75.4722 207.154C73.1166 207.151 66.9845 205.814 66.4952 205.197C66.1407 204.749 65.9271 203.013 65.9271 200.575C65.9271 197.622 65.7362 196.396 65.1454 195.545C60.5843 188.985 51.8345 192.475 51.8345 200.855C51.8345 203.198 51.8633 203.192 46.0069 202.095C38.2675 200.643 37.4995 200.383 37.6631 199.251C37.8707 197.811 36.9617 196.923 35.2787 196.923C34.4835 196.923 33.5927 196.68 33.2973 196.385C32.8838 195.971 32.3475 196.179 30.9751 197.282L29.1906 198.717L-2.33032 198.843C-40.9786 198.998 -38.0307 198.234 -43.8507 209.613C-48.983 219.652 -52.9701 221.12 -66.0387 217.791C-76.026 215.246 -77.3031 214.593 -74.0461 213.697C-72.96 213.399 -72.9661 213.384 -74.4203 212.79C-75.9988 212.144 -76.3745 211.474 -75.1611 211.474C-73.1781 211.474 -75.7337 210.195 -78.2923 209.906C-79.851 209.73 -81.4704 209.277 -81.8915 208.896C-82.5808 208.274 -82.7141 208.299 -83.2504 209.159C-83.5776 209.681 -84.188 210.11 -84.6077 210.11C-85.9377 210.11 -86.7587 210.619 -86.5027 211.285C-86.3224 211.756 -86.636 211.929 -87.6692 211.929H-89.081V205.79V199.651H-86.5512C-82.3672 199.651 -82.2627 199.508 -82.2627 193.778C-82.2627 186.562 -84.9439 184.843 -85.4438 191.74L-85.6711 194.876L-87.3768 195.018L-89.081 195.159V186.365C-89.081 176.793 -89.3688 175.549 -91.5805 175.549C-93.2271 175.549 -93.3816 176.149 -93.627 183.508L-93.8543 190.329L-95.5448 190.469L-97.2369 190.61L-97.3626 184.607C-97.5005 178.128 -97.9746 176.902 -99.8773 178.103C-100.85 178.715 -101.333 192.898 -100.418 194C-100.112 194.368 -98.7124 194.662 -96.8824 194.742L-93.8543 194.876L-93.7285 202.345C-93.5846 210.916 -93.5028 210.716 -96.8082 209.831C-99.0896 209.221 -104.093 208.504 -113.855 207.39C-115.854 207.161 -120.253 206.651 -123.629 206.253C-127.004 205.856 -131.503 205.337 -133.628 205.097C-135.753 204.856 -140.049 204.346 -143.175 203.959C-146.3 203.573 -150.493 203.073 -152.492 202.847C-154.494 202.621 -158.891 202.104 -162.266 201.698C-165.641 201.29 -170.039 200.778 -172.04 200.56C-174.04 200.34 -178.471 199.831 -181.886 199.429C-187.594 198.757 -188.623 198.757 -194.614 199.428C-198.198 199.831 -202.769 200.339 -204.768 200.557C-208.519 200.968 -221.485 202.444 -229.088 203.329C-231.463 203.604 -233.712 203.865 -234.088 203.906C-234.689 203.974 -234.783 211.464 -234.885 267.756L-235 331.528H67.9706H370.941V262.137V192.748L366.963 194.894C364.776 196.074 361.696 197.747 360.119 198.613C356.708 200.481 355.941 200.348 355.941 197.884C355.941 194.679 355.987 194.648 360.957 194.648C367.219 194.648 366.85 195.359 366.85 183.319C366.85 172.755 366.671 171.912 364.427 171.912C362.22 171.912 361.849 173.253 361.849 181.256V188.78L359.009 188.646L356.169 188.509L356.047 175.814C355.92 162.459 355.881 162.207 353.775 161.407C350.394 160.12 349.591 162.147 349.583 171.988C349.579 176.558 349.399 179.627 349.129 179.718C348.882 179.801 347.195 179.767 345.378 179.642L342.076 179.415L341.849 173.144C341.609 166.522 341.431 166.023 339.305 166.006C337.112 165.991 336.848 167.044 336.848 175.855C336.848 186.062 336.426 185.475 343.913 185.653L349.349 185.781V195.1V204.418L347.531 205.302C341.856 208.057 338.322 206.87 331.424 199.889C325.788 194.186 325.591 194.092 320.597 194.724C313.948 195.565 303.553 200.763 294.119 207.966C289.565 211.442 287.254 211.892 278.193 211.068C267.898 210.13 264.379 209.584 263.777 208.83C262.93 207.767 263.081 207.382 264.345 207.382C265.903 207.382 265.772 206.704 264.076 206C262.892 205.509 262.789 205.352 263.419 204.999C264.631 204.321 263.424 203.268 261.806 203.592C260.962 203.761 260.482 203.67 260.482 203.339C260.482 203.047 259.906 202.863 259.162 202.921C258.438 202.976 257.523 202.754 257.131 202.429C256.534 201.933 256.222 201.992 255.207 202.791C254.541 203.315 253.589 203.744 253.094 203.744C252.429 203.744 252.253 203.973 252.421 204.617C252.588 205.256 252.359 205.564 251.565 205.762C250.073 206.137 250.207 206.795 251.844 207.155C254.209 207.673 253.556 208.768 251.049 208.487C249.861 208.354 247.254 208.058 245.253 207.831C243.253 207.602 237.833 207.085 233.207 206.679C221.209 205.629 221.191 205.625 221.02 203.861C220.856 202.185 221.268 202.006 225.707 201.815L228.434 201.698L228.562 196.421C228.668 192.014 228.569 191.044 227.955 190.535C226.53 189.352 225.73 190.55 225.48 194.241L225.253 197.605H223.208H221.161L221.032 192.489L220.905 187.373H223.677C228.359 187.373 228.206 187.673 228.206 178.506C228.206 171.144 228.144 170.547 227.331 170.11C225.333 169.04 225.025 169.8 225.025 175.789C225.025 182.653 224.969 182.825 222.703 182.825H220.934V172.439V162.053L219.742 161.51C218.769 161.066 218.352 161.095 217.477 161.669L216.403 162.374L216.282 174.987L216.16 187.6H215.024C213.952 187.6 213.882 187.448 213.772 184.872C213.588 180.611 213.385 180.097 211.883 180.097C210.178 180.097 210.024 180.606 210.031 186.16C210.04 191.79 210.066 191.836 213.444 192.008L216.16 192.148L216.289 198.25C216.359 201.607 216.256 204.511 216.062 204.705C215.739 205.024 213.247 204.826 198.205 203.289C191.144 202.568 175.422 201.031 170.477 200.58C168.102 200.363 162.477 199.854 157.977 199.449L149.795 198.713L134.438 201.819C125.992 203.529 118.986 204.83 118.869 204.714C118.751 204.597 118.651 195.276 118.647 184.001C118.638 164.997 118.574 163.363 117.791 161.636C115.661 156.944 108.891 156.385 105.851 160.649L104.792 162.134L104.565 181.688L104.338 201.243L99.2234 201.371L94.1093 201.5V179.047V156.594L93.0519 154.589C91.3083 151.287 86.9047 149.22 83.3963 150.058Z" fill="#3D190D"/>
<defs>
<linearGradient id="paint0_linear" x1="222.144" y1="87.4846" x2="222.144" y2="269.141" gradientUnits="userSpaceOnUse">
<stop stop-color="#9A300F"/>
<stop offset="1" stop-color="#3D190D"/>
</linearGradient>
</defs>
</svg>
