<svg width="27" height="27" viewBox="0 0 27 27" fill="none" xmlns="http://www.w3.org/2000/svg">
<g clip-path="url(#clip0)">
<path d="M26.4267 10.1187H1.66746C1.35685 10.1187 1.10474 10.3708 1.10474 10.6814V24.1864C1.10474 25.7373 2.36635 27 3.91826 27H24.1758C25.7278 27 26.9893 25.7373 26.9893 24.1864V10.6814C26.9894 10.3708 26.7373 10.1187 26.4267 10.1187ZM25.864 24.1864C25.864 25.1171 25.1066 25.8745 24.1758 25.8745H3.91832C2.98758 25.8745 2.23019 25.1171 2.23019 24.1864V11.2441H25.864V24.1864Z" fill="white"/>
<path d="M26.9712 4.91139L26.0135 1.27743C25.7929 0.393963 24.8904 -0.16085 23.9957 0.0417248L1.32296 5.4212C0.877293 5.52249 0.50026 5.7937 0.260546 6.18313C0.0208325 6.57251 -0.0500689 7.03168 0.0624553 7.47734L1.1226 11.6684C1.18564 11.9227 1.41523 12.0927 1.66728 12.0927C1.71228 12.0927 1.75844 12.0882 1.80682 12.0758C2.1073 12.0004 2.28962 11.6943 2.21308 11.3927L2.1512 11.1485L26.5514 5.60468C26.6999 5.56981 26.8293 5.47749 26.9082 5.34698C26.9881 5.21641 27.0095 5.05884 26.9712 4.91139ZM1.87556 10.0568L1.15304 7.20387C1.1159 7.05531 1.14064 6.90227 1.21946 6.77171C1.29938 6.6423 1.42541 6.55225 1.57845 6.51622L24.2511 1.1379C24.2916 1.12777 24.3332 1.12329 24.3737 1.12329C24.6259 1.12329 24.8588 1.29658 24.923 1.55655L25.7344 4.63459L1.87556 10.0568Z" fill="white"/>
<path d="M6.42107 10.1772C6.14195 10.0411 5.80659 10.1513 5.66479 10.4293L3.41394 14.931C3.27551 15.209 3.38803 15.5466 3.66605 15.6862C3.74819 15.7267 3.83375 15.7458 3.91816 15.7458C4.12411 15.7458 4.32331 15.6321 4.42233 15.4341L6.67318 10.9324C6.81161 10.6544 6.69903 10.3168 6.42107 10.1772Z" fill="white"/>
<path d="M12.0472 10.1772C11.7692 10.0411 11.4316 10.1513 11.292 10.4293L9.04113 14.931C8.90271 15.209 9.01523 15.5466 9.29324 15.6862C9.37538 15.7267 9.46095 15.7458 9.54536 15.7458C9.75131 15.7458 9.95051 15.6321 10.0484 15.4341L12.2993 10.9324C12.4376 10.6544 12.3251 10.3168 12.0472 10.1772Z" fill="white"/>
<path d="M17.6741 10.1772C17.3973 10.0411 17.0596 10.1513 16.9189 10.4293L14.6681 14.931C14.5297 15.209 14.6422 15.5466 14.9202 15.6862C15.0023 15.7267 15.0879 15.7458 15.1723 15.7458C15.3783 15.7458 15.5775 15.6321 15.6754 15.4341L17.9262 10.9324C18.0646 10.6544 17.9521 10.3168 17.6741 10.1772Z" fill="white"/>
<path d="M23.3013 10.1772C23.0222 10.0411 22.6868 10.1513 22.5461 10.4293L20.2953 14.931C20.1569 15.209 20.2694 15.5466 20.5474 15.6862C20.6295 15.7267 20.7151 15.7458 20.7995 15.7458C21.0055 15.7458 21.2047 15.6321 21.3026 15.4341L23.5534 10.9324C23.6918 10.6544 23.5793 10.3168 23.3013 10.1772Z" fill="white"/>
<path d="M26.4267 14.6204H1.66746C1.35685 14.6204 1.10474 14.8725 1.10474 15.1831C1.10474 15.4938 1.35685 15.7459 1.66746 15.7459H26.4267C26.7384 15.7459 26.9894 15.4938 26.9894 15.1831C26.9894 14.8725 26.7373 14.6204 26.4267 14.6204Z" fill="white"/>
<path d="M7.10868 9.13624L3.23274 5.2603C3.01328 5.04084 2.65651 5.04084 2.43705 5.2603C2.2176 5.47975 2.2176 5.83653 2.43705 6.05598L6.31299 9.93303C6.4233 10.0422 6.56732 10.0974 6.71139 10.0974C6.85546 10.0974 6.99948 10.0422 7.10868 9.93192C7.32813 9.71241 7.32813 9.35569 7.10868 9.13624Z" fill="white"/>
<path d="M12.6142 7.88587L8.73494 4.00993C8.51548 3.79047 8.15871 3.79047 7.93925 4.00993C7.71979 4.22939 7.71979 4.58616 7.93925 4.80562L11.8175 8.68155C11.9278 8.7907 12.0718 8.84588 12.2159 8.84588C12.3599 8.84588 12.5039 8.79076 12.6143 8.68155C12.8337 8.4621 12.8337 8.10532 12.6142 7.88587Z" fill="white"/>
<path d="M18.1153 6.63557L14.2427 2.75853C14.0233 2.53907 13.6665 2.53907 13.4471 2.75853C13.2276 2.97798 13.2276 3.33476 13.4471 3.55421L17.3196 7.43126C17.4299 7.54041 17.574 7.59559 17.718 7.59559C17.8621 7.59559 18.0061 7.54157 18.1153 7.43126C18.3348 7.2118 18.3348 6.85503 18.1153 6.63557Z" fill="white"/>
<path d="M23.614 5.38637L19.7403 1.50932C19.5209 1.28986 19.1641 1.28986 18.9446 1.50932C18.7252 1.72878 18.7252 2.08555 18.9446 2.30501L22.8183 6.18205C22.9286 6.2912 23.0726 6.34638 23.2167 6.34638C23.3608 6.34638 23.5048 6.29125 23.614 6.18205C23.8335 5.9626 23.8335 5.60582 23.614 5.38637Z" fill="white"/>
</g>
<defs>
<clipPath id="clip0">
<rect width="27" height="27" fill="white"/>
</clipPath>
</defs>
</svg>
