<svg width="34" height="34" viewBox="0 0 34 34" fill="none" xmlns="http://www.w3.org/2000/svg">
<path d="M16.998 0C8.50308 0.00407821 1.61499 6.89217 1.61499 15.3911V22.6422C1.61499 23.0255 1.79443 23.3844 2.1003 23.6168L8.71515 28.6372V32.7765C8.71515 33.4535 9.26162 34 9.93861 34H10.9215C11.5984 34 12.1449 33.4535 12.1449 32.7765V31.0963C12.1449 30.6681 12.4916 30.3215 12.9198 30.3215C13.348 30.3215 13.6946 30.6681 13.6946 31.0963V32.7765C13.6946 33.4535 14.2411 34 14.9181 34H14.9589C15.6359 34 16.1823 33.4535 16.1823 32.7765V31.0963C16.1823 30.6681 16.529 30.3215 16.9572 30.3215H17.0388C17.467 30.3215 17.8136 30.6681 17.8136 31.0963V32.7765C17.8136 33.4535 18.3601 34 19.0371 34H19.0779C19.7548 34 20.3013 33.4535 20.3013 32.7765V31.0963C20.3013 30.6681 20.648 30.3215 21.0762 30.3215C21.5044 30.3215 21.851 30.6681 21.851 31.0963V32.7765C21.851 33.4535 22.3975 34 23.0745 34H24.0614C24.7384 34 25.2849 33.4535 25.2849 32.7765V28.6331L31.8997 23.6128C32.2056 23.3804 32.385 23.0215 32.385 22.6381V15.3871C32.381 6.89217 25.4929 0.00407821 16.998 0ZM10.5667 22.7605C8.22576 22.7605 6.32532 20.86 6.32532 18.5191C6.32532 16.1783 8.22576 14.2778 10.5667 14.2778C12.9075 14.2778 14.808 16.1783 14.808 18.5191C14.808 20.8641 12.9075 22.7605 10.5667 22.7605ZM18.2051 25.8803H15.7949C15.2362 25.8803 14.8814 25.2808 15.1506 24.7914L16.3577 22.6015C16.635 22.0958 17.365 22.0958 17.6423 22.6015L18.8495 24.7914C19.1146 25.2808 18.7598 25.8803 18.2051 25.8803ZM23.4293 22.7605C21.0884 22.7605 19.188 20.86 19.188 18.5191C19.188 16.1783 21.0884 14.2778 23.4293 14.2778C25.7702 14.2778 27.6706 16.1783 27.6706 18.5191C27.6706 20.8641 25.7743 22.7605 23.4293 22.7605Z" fill="white"/>
</svg>
