<svg width="109" height="96" viewBox="0 0 109 96" fill="none" xmlns="http://www.w3.org/2000/svg">
<path fill-rule="evenodd" clip-rule="evenodd" d="M87.9682 30.3777C88.6167 30.0978 88.69 30.0695 88.8805 30.0281C89.1563 29.9678 90.3051 30.0695 90.4073 30.1629C90.5724 30.3142 90.7359 31.5323 90.6839 32.2223C90.6368 32.845 90.6561 32.9532 90.8847 33.3429C91.1602 33.8132 91.2259 34.7 91.0439 35.4862C91.0131 35.6189 91.0272 35.7266 90.9914 35.8139C90.8223 36.2267 89.5373 36.1822 77.1069 36.1786C64.6629 36.1748 63.6353 36.1868 63.5274 36.3342C63.4631 36.4222 63.2516 36.9803 63.057 37.5747C62.8627 38.1693 62.657 38.7743 62.5998 38.9195L62.4957 39.1838H57.4242H52.3527L52.0592 39.6188C51.4921 40.4592 51.1567 41.9302 51.2055 43.3644L51.2349 44.2242L49.9863 44.1939C47.2439 44.1269 46.3223 44.7618 46.107 46.8667C45.9642 48.2603 45.4881 49.2168 44.4671 50.1622C42.0704 52.381 37.8848 52.3393 36.9218 50.087C36.8534 49.927 36.7297 49.6395 36.6466 49.4479C36.4335 48.956 36.0823 48.8356 34.8609 48.8356C32.7275 48.8356 31.6152 49.9175 31.2072 52.3891C31.0805 53.1568 31.1386 56.9005 31.2928 57.9113C31.5495 59.5913 31.6015 59.9115 31.6825 60.3124C31.7304 60.55 31.8171 60.9822 31.8746 61.2727C31.9324 61.5632 32.0046 61.912 32.0354 62.0477C32.0882 62.2802 32.0618 62.3009 31.5795 62.4014C29.2131 62.8947 20.0732 62.8233 19.7486 62.309C19.5331 61.967 20.8078 55.8944 21.7605 52.7251C22.8573 49.0768 24.089 46.5525 25.7518 44.5468C26.103 44.1231 26.4104 43.6614 26.4349 43.5208C26.4595 43.3805 26.5464 42.9412 26.6281 42.545C26.7099 42.149 26.7971 41.7168 26.8216 41.5847C26.9058 41.1301 27.1881 39.8076 27.2347 39.6485C27.284 39.4801 27.6492 39.379 28.9065 39.1852C29.663 39.0686 30.2461 38.9337 30.6156 38.7895C30.7372 38.7424 30.9058 38.7034 30.9906 38.7034C31.0756 38.7034 31.2931 38.5306 31.4737 38.3194C31.6547 38.108 31.843 37.9352 31.8923 37.9352C32.1149 37.9352 32.8722 37.5014 33.006 37.2973C33.3499 36.7721 32.6746 36.117 31.4034 35.7426C31.0075 35.6257 30.5505 35.4878 30.3884 35.4363C30.2262 35.3845 30.0221 35.3423 29.9352 35.3423C29.8431 35.3423 29.7973 35.2889 29.8259 35.2147C29.9595 34.8665 32.4599 34.8196 32.4599 35.1654C32.4599 35.3338 33.2371 36.0145 33.4295 36.0145C33.9159 36.0145 34.6614 34.9877 34.8585 34.0457C34.9119 33.7911 34.9547 33.7603 35.2261 33.7816C35.889 33.8335 36.0813 33.8583 36.1452 33.7793C36.178 33.7388 36.1771 33.671 36.1885 33.5655C36.206 33.4069 36.2599 33.2363 36.3087 33.1862C36.455 33.0355 36.4106 32.8671 36.1572 32.6139C35.8332 32.2896 35.855 32.0471 36.2458 31.6329C36.4264 31.4413 36.5515 31.2252 36.5234 31.1524C36.4319 30.9137 36.7578 31.0126 37.0371 31.3086C37.2548 31.5394 37.3889 31.5966 37.7102 31.5966C38.1587 31.5966 38.8931 31.7323 39.6144 31.9484C40.2485 32.1384 82.1457 32.2779 82.5454 32.0915C82.6757 32.0305 82.8795 31.9433 82.9983 31.8977C83.1174 31.852 83.3226 31.7697 83.4547 31.7152C83.7812 31.5803 84.1954 31.4465 84.6551 31.3274C84.8663 31.2726 85.217 31.181 85.4345 31.1241C85.6519 31.0671 85.9577 31.0205 86.1141 31.0205C86.3675 31.0205 86.9348 30.8238 87.9682 30.3777ZM37.6565 32.9412C37.8497 32.9412 37.8639 32.4482 37.6794 32.1495C37.5587 31.9539 37.4538 32.1209 37.4538 32.509C37.4538 32.8848 37.4802 32.9412 37.6565 32.9412ZM43.4798 33.5159C48.3554 33.5145 48.7527 33.4887 48.5039 33.1886C48.2867 32.927 38.6075 32.9624 38.3693 33.2257C38.2756 33.3295 38.2241 33.4808 38.2554 33.562C38.3178 33.7244 38.6061 33.7669 38.6061 33.6135C38.6061 33.5508 40.2957 33.517 43.4798 33.5159ZM48.4554 42.1934C48.5677 42.1504 48.5938 41.8613 48.5938 40.6619C48.5938 39.2874 48.5813 39.1838 48.4161 39.1838C48.2567 39.1838 48.2325 39.2964 48.1837 40.2641C48.118 41.5626 48.0897 41.6476 47.6989 41.7127C47.0861 41.8152 38.9427 41.7133 38.7323 41.601C38.5762 41.5171 38.5059 41.5222 38.4225 41.6225C38.2887 41.7836 38.3789 42.0395 38.6138 42.1651C38.7999 42.2646 48.199 42.2918 48.4554 42.1934ZM43.3714 44.4932C43.3335 44.4555 43.0994 44.3708 42.8512 44.3054C42.4143 44.1901 41.4873 44.1329 41.4873 44.2212C41.4873 44.2591 41.3886 44.6294 41.1031 45.6663C41.0595 45.8249 40.9551 46.2051 40.8712 46.5114C40.4823 47.9328 40.9911 49.0114 42.404 49.7608C42.9334 50.0417 42.9433 50.1322 42.4443 50.1322C41.0537 50.1322 40.0264 48.8029 40.0084 46.9801C40.0027 46.4039 40.0104 46.1305 39.8801 45.967C39.751 45.805 39.4862 45.751 38.9381 45.6173C38.5516 45.523 38.1922 45.4191 38.1391 45.3864C37.7535 45.148 36.8774 46.9305 36.8774 47.9538C36.8774 50.5178 39.0961 51.9806 41.7274 51.1508C44.7657 50.193 46.5751 47.0656 45.0017 45.4922C44.6854 45.1758 43.7381 44.5618 43.5662 44.5618C43.4967 44.5618 43.409 44.531 43.3714 44.4932Z" fill="white"/>
</svg>
