<svg width="137" height="137" viewBox="0 0 137 137" fill="none" xmlns="http://www.w3.org/2000/svg">
<g clip-path="url(#clip0)">
<path d="M136.57 60.8938C136.354 58.9683 134.108 57.5197 132.166 57.5197C125.889 57.5197 120.319 53.8356 117.983 48.1336C115.598 42.2948 117.137 35.4867 121.813 31.1965C123.286 29.8498 123.465 27.5949 122.231 26.0296C119.017 21.9498 115.366 18.264 111.379 15.0699C109.819 13.8186 107.527 13.9928 106.173 15.4912C102.09 20.013 94.7559 21.6932 89.0882 19.3286C83.1925 16.8479 79.4712 10.8716 79.8367 4.45691C79.957 2.44071 78.4829 0.688758 76.4738 0.454729C71.3566 -0.137747 66.1944 -0.154928 61.0623 0.414441C59.0787 0.633657 57.6058 2.34414 57.6716 4.33486C57.8938 10.6868 54.1304 16.5576 48.2915 18.9495C42.692 21.237 35.4087 19.5692 31.3343 15.0871C29.9876 13.6107 27.7356 13.4294 26.1649 14.654C22.0602 17.8753 18.327 21.5635 15.0838 25.6101C13.8201 27.1831 14.0067 29.463 15.492 30.8144C20.2609 35.1329 21.7984 41.9997 19.3224 47.9067C16.9584 53.5382 11.1113 57.1659 4.41807 57.1659C2.24605 57.096 0.700278 58.5553 0.460325 60.5306C-0.14163 65.6751 -0.148147 70.9197 0.431294 76.1062C0.647548 78.0401 2.95998 79.4762 4.92345 79.4762C10.8897 79.3245 16.6142 83.0157 19.019 88.8616C21.4121 94.7005 19.8716 101.506 15.1875 105.802C13.7223 107.148 13.5351 109.398 14.7722 110.962C17.9532 115.016 21.6076 118.704 25.6068 121.925C27.1768 123.19 29.4603 123.013 30.8212 121.512C34.9199 116.98 42.253 115.303 47.8975 117.672C53.8104 120.146 57.53 126.122 57.1668 132.538C57.0477 134.555 58.5253 136.312 60.5273 136.541C63.1461 136.847 65.7784 136.999 68.4191 136.999C70.9253 136.999 73.432 136.862 75.9388 136.583C77.9248 136.363 79.3953 134.651 79.3284 132.66C79.0991 126.311 82.8708 120.439 88.7025 118.052C94.3393 115.75 101.59 117.435 105.667 121.911C107.021 123.384 109.259 123.563 110.836 122.343C114.934 119.13 118.66 115.444 121.917 111.386C123.182 109.816 123.003 107.534 121.509 106.18C116.741 101.864 115.196 94.9944 117.672 89.0933C119.999 83.5377 125.629 79.8074 131.684 79.8074L132.531 79.8299C134.497 79.9893 136.303 78.4755 136.541 76.47C137.146 71.3208 137.152 66.0821 136.57 60.8938ZM68.5015 107.99C46.6906 107.99 29.0106 90.3096 29.0106 68.4994C29.0106 46.6892 46.6912 29.0091 68.5015 29.0091C90.3117 29.0091 107.992 46.6892 107.992 68.4994C107.992 75.9024 105.951 82.8267 102.406 88.7479L85.1145 71.4553C86.3664 68.5036 87.0276 65.3036 87.027 62.0011C87.027 55.5343 84.5084 49.4549 79.9351 44.8827C75.3629 40.3106 69.2835 37.7926 62.8178 37.7926C60.66 37.7926 58.5123 38.0793 56.4345 38.6451C55.5245 38.8934 54.7803 39.6435 54.538 40.5553C54.2903 41.4878 54.5694 42.4435 55.2981 43.1728C55.2981 43.1728 63.8351 51.7756 66.6914 54.6313C66.9906 54.9305 66.9901 55.6445 66.948 55.9016L66.9213 56.0894C66.6334 59.2295 66.0782 62.9989 65.6203 64.4475C65.5586 64.5085 65.5006 64.56 65.4378 64.6228C65.372 64.6886 65.3116 64.752 65.2482 64.8172C63.7806 65.2882 59.9532 65.8499 56.7633 66.1354L56.7639 66.1183L56.6205 66.1544C56.5951 66.1574 56.5477 66.1609 56.4849 66.1609C56.14 66.1609 55.6329 66.0643 55.1719 65.604C52.1989 62.6309 43.9967 54.4874 43.9967 54.4874C43.2608 53.7539 42.506 53.5998 42.003 53.5998C40.8305 53.5998 39.7806 54.4471 39.45 55.6622C37.1921 64.0179 39.5857 73.0058 45.6982 79.119C50.2716 83.6917 56.3516 86.2097 62.8184 86.2097C66.1209 86.2097 69.3209 85.5491 72.272 84.2972L89.7518 101.777C83.6149 105.704 76.3275 107.99 68.5015 107.99Z" fill="#DA4213"/>
</g>
<defs>
<clipPath id="clip0">
<rect width="137" height="137" fill="white"/>
</clipPath>
</defs>
</svg>
