<svg width="182" height="117" viewBox="0 0 182 117" fill="none" xmlns="http://www.w3.org/2000/svg">
<path fill-rule="evenodd" clip-rule="evenodd" d="M70.2818 36.2686C70.3191 35.5493 70.5153 34.872 70.8358 34.2711C70.6507 34.2596 70.4637 34.2537 70.2753 34.2537C65.9173 34.2537 62.3671 37.3885 62.2206 41.3057H62.216V41.5405C62.2159 41.5462 62.2159 41.5518 62.2159 41.5575C62.2159 41.5632 62.2159 41.5689 62.216 41.5746V69.0098H62.2232C62.4815 77.9571 69.596 85.1285 78.3347 85.1285C87.2369 85.1285 94.4535 77.6863 94.4535 68.506C94.4535 59.6745 87.775 52.4517 79.342 51.9155V51.8836H77.3321L77.3272 51.8836C77.1615 51.8836 76.9978 51.8925 76.8367 51.9098L76.8236 51.8836C75.2285 51.7996 71.9376 51.3295 71.5346 50.1206C71.0309 48.6095 71.5346 53.6466 72.2902 56.417C72.8823 58.5883 74.1661 60.1506 75.4093 60.5259C75.9918 60.7983 76.6417 60.9504 77.3272 60.9504H78.8383V60.9663C83.0547 61.2344 86.394 64.8458 86.394 69.2616C86.394 73.8517 82.7857 77.5728 78.3346 77.5728C73.8835 77.5728 70.2752 73.8517 70.2752 69.2616C70.2752 69.1773 70.2764 69.0933 70.2788 69.0097H70.2753V41.3057H70.2753V36.5353L70.2753 36.5205L70.2753 36.5056V36.2686H70.2818Z" fill="#DA4213"/>
<path fill-rule="evenodd" clip-rule="evenodd" d="M111.58 85.6323C120.76 85.6323 128.202 78.1902 128.202 69.0099C128.202 59.8295 120.76 52.3874 111.58 52.3874C102.399 52.3874 94.9572 59.8295 94.9572 69.0099C94.9572 78.1902 102.399 85.6323 111.58 85.6323ZM112.083 77.573C116.813 77.573 120.646 73.7391 120.646 69.0099C120.646 64.2806 116.813 60.4468 112.083 60.4468C107.354 60.4468 103.52 64.2806 103.52 69.0099C103.52 73.7391 107.354 77.573 112.083 77.573Z" fill="#DA4213"/>
<path fill-rule="evenodd" clip-rule="evenodd" d="M145.53 52.6205C147.084 52.0531 148.175 51.2759 148.538 50.3969C148.92 51.0476 149.139 51.808 149.139 52.6205C149.139 52.6275 149.139 52.6346 149.139 52.6416V55.6917H149.121C148.906 57.948 146.81 59.7581 144.152 60.012L144.149 60.0105L142.165 60.0425L142.182 60.0509C139.44 60.2033 137.246 62.4122 137.117 65.1611H137.111V84.1H129.561V65.0332H129.582C129.568 64.8003 129.561 64.5656 129.561 64.3293C129.561 57.9268 134.7 52.7246 141.078 52.622V52.6205H141.27H145.53Z" fill="#DA4213"/>
<path fill-rule="evenodd" clip-rule="evenodd" d="M179.851 68.6802C179.851 68.7442 179.851 68.8082 179.85 68.8721H172.044C171.976 64.0547 168.049 60.1705 163.216 60.1705C158.382 60.1705 154.455 64.0547 154.387 68.8721H146.709C146.708 68.8082 146.708 68.7442 146.708 68.6802C146.708 59.528 154.127 52.1086 163.28 52.1086C172.432 52.1086 179.851 59.528 179.851 68.6802ZM179.851 68.8722H172.045V84.5277L172.045 84.5479L172.045 84.5681V84.6119H172.046C172.105 86.8086 175.205 88.5788 179.019 88.5788C180.086 88.5788 181.096 88.4405 182 88.1932C180.678 86.9663 179.851 85.2139 179.851 83.2683L179.851 83.2043H179.851V80.5453V77.9577V68.8722ZM154.386 84.6119V68.8722H146.708V84.6119L154.386 84.6119Z" fill="#DA4213"/>
<path d="M8.06937 89V20.75H31.46C39.1787 20.75 45.0537 22.2969 49.085 25.3906C53.1162 28.4844 55.1319 33.0938 55.1319 39.2188C55.1319 42.3438 54.2881 45.1562 52.6006 47.6562C50.9131 50.1562 48.4444 52.0938 45.1944 53.4688C48.8819 54.4688 51.7256 56.3594 53.7256 59.1406C55.7569 61.8906 56.7725 65.2031 56.7725 69.0781C56.7725 75.4844 54.71 80.4062 50.585 83.8438C46.4912 87.2812 40.6162 89 32.96 89H8.06937ZM19.9287 58.2031V79.5312H33.1006C36.8194 79.5312 39.7256 78.6094 41.8194 76.7656C43.9131 74.9219 44.96 72.3594 44.96 69.0781C44.96 61.9844 41.335 58.3594 34.085 58.2031H19.9287ZM19.9287 49.4844H31.5537C35.2412 49.4844 38.1162 48.6562 40.1787 47C42.2725 45.3125 43.3194 42.9375 43.3194 39.875C43.3194 36.5 42.3506 34.0625 40.4131 32.5625C38.5069 31.0625 35.5225 30.3125 31.46 30.3125H19.9287V49.4844Z" fill="#2B2B2B"/>
</svg>
