<svg width="24" height="26" viewBox="0 0 24 26" fill="none" xmlns="http://www.w3.org/2000/svg">
<path d="M23.832 11.0339C23.7509 10.5253 23.2728 10.1789 22.7643 10.26C22.2557 10.3412 21.9093 10.8192 21.9904 11.3278C21.9913 11.3334 21.9922 11.3389 21.9932 11.3444C22.9428 16.9343 19.181 22.2356 13.5911 23.1852C8.00113 24.1348 2.69983 20.3731 1.75025 14.7831C0.800658 9.19319 4.56246 3.89189 10.1523 2.9423C13.59 2.35834 17.0891 3.55915 19.4438 6.13096L15.313 7.50726C14.8243 7.66986 14.5601 8.19776 14.7226 8.68643C14.7227 8.68654 14.7227 8.6867 14.7228 8.68681C14.8854 9.17548 15.4133 9.43976 15.9019 9.27722C15.9021 9.27716 15.9022 9.27711 15.9023 9.27711L21.4971 7.41219C21.8781 7.28532 22.135 6.92882 22.135 6.52729V0.932486C22.135 0.41748 21.7175 0 21.2025 0C20.6875 0 20.27 0.41748 20.27 0.932486V4.33876C15.4678 -0.228655 7.8723 -0.0383548 3.30488 4.76378C-1.26254 9.56592 -1.07229 17.1615 3.7299 21.7289C8.53209 26.2964 16.1276 26.1061 20.6951 21.3039C23.2995 18.5655 24.4619 14.7602 23.832 11.0339Z" fill="white"/>
</svg>
