<svg width="25" height="25" viewBox="0 0 25 25" fill="none" xmlns="http://www.w3.org/2000/svg">
<g clip-path="url(#clip0)">
<path d="M23.7203 9.87665L21.9656 9.57897C21.7828 8.98884 21.5478 8.41959 21.2606 7.87645L22.2946 6.42984C22.7333 5.81359 22.6654 4.97277 22.1275 4.44009L20.5712 2.8838C20.2788 2.59134 19.8923 2.42944 19.4797 2.42944C19.1559 2.42944 18.8478 2.52867 18.5867 2.71668L17.1348 3.75072C16.5708 3.45304 15.9807 3.20759 15.3697 3.0248L15.0772 1.29095C14.9519 0.544141 14.3095 0.00100708 13.5522 0.00100708H11.3536C10.5963 0.00100708 9.95398 0.544141 9.82864 1.29095L9.52574 3.06658C8.94082 3.24937 8.37158 3.4896 7.82844 3.78206L6.39227 2.74801C6.13115 2.56001 5.8178 2.46078 5.49401 2.46078C5.08144 2.46078 4.68976 2.62267 4.40252 2.91513L2.84101 4.47142C2.30832 5.00411 2.23521 5.84492 2.67389 6.46117L3.71838 7.92868C3.43115 8.47704 3.20136 9.04628 3.0238 9.63642L1.28994 9.92887C0.543134 10.0542 0 10.6966 0 11.4538V13.6525C0 14.4097 0.543134 15.0521 1.28994 15.1774L3.06558 15.4803C3.24836 16.0652 3.48859 16.6345 3.78105 17.1776L2.75223 18.6086C2.31354 19.2248 2.38143 20.0656 2.91935 20.5983L4.47564 22.1546C4.76809 22.4471 5.15455 22.609 5.56713 22.609C5.89092 22.609 6.19904 22.5097 6.46016 22.3217L7.92767 21.2772C8.45514 21.554 9.00872 21.7786 9.57796 21.9562L9.87042 23.7109C9.99576 24.4577 10.6381 25.0009 11.3954 25.0009H13.5992C14.3565 25.0009 14.9989 24.4577 15.1242 23.7109L15.4219 21.9562C16.012 21.7734 16.5813 21.5384 17.1244 21.2511L18.571 22.2852C18.8321 22.4732 19.1455 22.5724 19.4693 22.5724C19.8818 22.5724 20.2683 22.4105 20.5608 22.1181L22.1171 20.5618C22.6497 20.0291 22.7229 19.1883 22.2842 18.572L21.2501 17.1202C21.5374 16.5718 21.7776 16.0026 21.9552 15.4177L23.7099 15.1252C24.4567 14.9999 24.9998 14.3575 24.9998 13.6003V11.4016C25.0103 10.6444 24.4672 10.002 23.7203 9.87665ZM23.6002 13.6003C23.6002 13.6681 23.5532 13.7256 23.4853 13.736L21.2919 14.1016C21.0151 14.1486 20.7958 14.3523 20.7279 14.6186C20.5294 15.3863 20.2265 16.1227 19.8192 16.8068C19.6782 17.0471 19.6886 17.3447 19.8505 17.5745L21.1405 19.3919C21.177 19.4442 21.1718 19.5225 21.1248 19.5695L19.5685 21.1258C19.5319 21.1624 19.4954 21.1676 19.4693 21.1676C19.4379 21.1676 19.4118 21.1571 19.3909 21.1415L17.5787 19.8515C17.3542 19.6896 17.0513 19.6792 16.811 19.8202C16.1269 20.2275 15.3905 20.5304 14.6228 20.7289C14.3513 20.7968 14.1476 21.0213 14.1058 21.2929L13.735 23.4863C13.7246 23.5542 13.6671 23.6012 13.5992 23.6012H11.4006C11.3327 23.6012 11.2753 23.5542 11.2648 23.4863L10.8992 21.2929C10.8522 21.0161 10.6486 20.7968 10.3822 20.7289C9.63541 20.5357 8.91471 20.238 8.24102 19.8515C8.13135 19.7889 8.00601 19.7575 7.88589 19.7575C7.74489 19.7575 7.59866 19.7993 7.47854 19.8881L5.65068 21.1885C5.62457 21.2041 5.59846 21.2146 5.57235 21.2146C5.55146 21.2146 5.50968 21.2094 5.47312 21.1728L3.91683 19.6165C3.86983 19.5695 3.86461 19.4964 3.90117 19.4389L5.18589 17.6372C5.34778 17.4074 5.35823 17.1045 5.21722 16.8643C4.80987 16.1854 4.49652 15.449 4.29807 14.6813C4.22496 14.415 4.00562 14.2113 3.73405 14.1643L1.52495 13.7883C1.45706 13.7778 1.41006 13.7204 1.41006 13.6525V11.4538C1.41006 11.3859 1.45706 11.3285 1.52495 11.318L3.70271 10.9525C3.9795 10.9055 4.20407 10.7018 4.27196 10.4302C4.46519 9.66253 4.76287 8.92094 5.165 8.2368C5.306 7.99657 5.29034 7.69889 5.12844 7.47433L3.82805 5.64647C3.79149 5.59425 3.79672 5.51591 3.84372 5.46891L5.40001 3.91262C5.43656 3.87606 5.47312 3.87084 5.49923 3.87084C5.53057 3.87084 5.55668 3.88128 5.57757 3.89695L7.37931 5.18167C7.6091 5.34357 7.912 5.35401 8.15224 5.21301C8.83115 4.80566 9.56752 4.49231 10.3352 4.29386C10.6016 4.22074 10.8052 4.0014 10.8522 3.72983L11.2283 1.52074C11.2387 1.45285 11.2961 1.40584 11.364 1.40584H13.5627C13.6306 1.40584 13.688 1.45285 13.6985 1.52074L14.064 3.6985C14.111 3.97529 14.3147 4.19985 14.5863 4.26774C15.3749 4.4662 16.1269 4.77432 16.8267 5.1869C17.0669 5.3279 17.3646 5.31746 17.5944 5.15556L19.3962 3.86039C19.4223 3.84473 19.4484 3.83428 19.4745 3.83428C19.4954 3.83428 19.5372 3.8395 19.5737 3.87606L21.13 5.43235C21.177 5.47935 21.1822 5.55247 21.1457 5.60991L19.8557 7.4221C19.6938 7.64667 19.6834 7.94957 19.8244 8.1898C20.2318 8.87394 20.5347 9.61031 20.7331 10.378C20.801 10.6496 21.0256 10.8532 21.2971 10.895L23.4906 11.2658C23.5584 11.2763 23.6054 11.3337 23.6054 11.4016V13.6003H23.6002Z" fill="#E7E7E7"/>
<path d="M12.5025 7.10254C9.52572 7.10254 7.10773 9.52053 7.10773 12.4973C7.10773 15.4741 9.52572 17.8921 12.5025 17.8921C15.4793 17.8921 17.8973 15.4741 17.8973 12.4973C17.8973 9.52053 15.4793 7.10254 12.5025 7.10254ZM12.5025 16.4821C10.3039 16.4821 8.51779 14.696 8.51779 12.4973C8.51779 10.2987 10.3039 8.5126 12.5025 8.5126C14.7012 8.5126 16.4872 10.2987 16.4872 12.4973C16.4872 14.696 14.7012 16.4821 12.5025 16.4821Z" fill="#E7E7E7"/>
</g>
<defs>
<clipPath id="clip0">
<rect width="25" height="25" fill="white"/>
</clipPath>
</defs>
</svg>
