<svg width="166" height="166" viewBox="0 0 166 166" fill="none" xmlns="http://www.w3.org/2000/svg">
<path d="M70.2317 22.3457C68.5035 22.3457 67.007 22.9788 65.7428 24.2416L32.5227 57.4622H6.38588C4.65558 57.4622 3.1594 58.0953 1.89592 59.3574C0.632089 60.6209 0 62.1181 0 63.847L0 102.153C0 103.883 0.632089 105.379 1.89592 106.643C3.16044 107.906 4.65698 108.539 6.38588 108.539H32.5213L65.7414 141.76C67.0052 143.022 68.5018 143.656 70.2303 143.656C71.9606 143.656 73.4568 143.022 74.7203 141.76C75.9841 140.498 76.6162 139 76.6162 137.271V28.7316C76.6162 27.0027 75.9841 25.5051 74.7217 24.2416C73.4572 22.9788 71.962 22.3457 70.2317 22.3457Z" fill="white"/>
<path d="M110.683 97.1147C113.511 92.7586 114.924 88.0544 114.924 83.0001C114.924 77.9459 113.511 73.2193 110.683 68.8293C107.855 64.44 104.118 61.3484 99.4599 59.552C98.7953 59.2204 97.963 59.0534 96.9654 59.0534C95.2379 59.0534 93.7396 59.6691 92.4765 60.899C91.2151 62.1293 90.5802 63.6426 90.5802 65.4379C90.5802 66.8345 90.9796 68.0152 91.7794 68.9799C92.5771 69.945 93.5408 70.7766 94.6732 71.4744C95.8018 72.1725 96.9332 72.9377 98.0653 73.769C99.1967 74.6006 100.16 75.7809 100.958 77.3103C101.753 78.8407 102.155 80.7359 102.155 82.9977C102.155 85.2588 101.756 87.1543 100.958 88.6848C100.16 90.2155 99.1967 91.3945 98.0653 92.2278C96.9332 93.0591 95.8018 93.8243 94.6732 94.5224C93.5408 95.2185 92.5771 96.0518 91.7794 97.0144C90.982 97.9806 90.5802 99.1609 90.5802 100.558C90.5802 102.355 91.2147 103.866 92.4765 105.096C93.7392 106.327 95.2375 106.944 96.9654 106.944C97.9626 106.944 98.7949 106.777 99.4599 106.447C104.118 104.581 107.857 101.471 110.683 97.1147Z" fill="white"/>
<path d="M131.983 111.181C137.637 102.57 140.465 93.1757 140.465 82.9998C140.465 72.8234 137.636 63.4308 131.983 54.8139C126.331 46.2026 118.845 39.9348 109.537 36.0102C108.673 35.6783 107.808 35.5116 106.945 35.5116C105.216 35.5116 103.718 36.1437 102.454 37.4075C101.192 38.671 100.559 40.1672 100.559 41.8964C100.559 44.4905 101.856 46.4524 104.451 47.7837C108.175 49.7118 110.701 51.1748 112.031 52.172C116.954 55.764 120.793 60.269 123.553 65.6894C126.313 71.1102 127.693 76.8798 127.693 82.9984C127.693 89.1173 126.313 94.8865 123.553 100.307C120.793 105.728 116.951 110.233 112.031 113.824C110.701 114.822 108.175 116.285 104.451 118.213C101.856 119.544 100.559 121.506 100.559 124.1C100.559 125.829 101.192 127.327 102.454 128.589C103.718 129.854 105.246 130.487 107.042 130.487C107.841 130.487 108.673 130.318 109.537 129.988C118.845 126.063 126.331 119.794 131.983 111.181Z" fill="white"/>
<path d="M153.331 40.8535C144.885 28.0516 133.644 18.6231 119.611 12.5709C118.747 12.2389 117.882 12.0729 117.02 12.0729C115.291 12.0729 113.792 12.7057 112.531 13.9682C111.265 15.2313 110.633 16.7292 110.633 18.4581C110.633 20.852 111.93 22.815 114.525 24.3444C114.992 24.6085 115.737 24.9576 116.768 25.3912C117.799 25.8217 118.547 26.1707 119.014 26.437C122.073 28.0985 124.8 29.7952 127.197 31.5245C135.375 37.5756 141.761 45.1244 146.35 54.1696C150.939 63.2142 153.232 72.8242 153.232 83.0005C153.232 93.1786 150.939 102.786 146.35 111.831C141.762 120.877 135.375 128.427 127.197 134.477C124.8 136.205 122.073 137.901 119.014 139.565C118.547 139.829 117.799 140.177 116.768 140.609C115.737 141.04 114.992 141.389 114.525 141.657C111.93 143.185 110.633 145.149 110.633 147.543C110.633 149.272 111.265 150.769 112.531 152.032C113.792 153.296 115.29 153.928 117.02 153.928C117.882 153.928 118.747 153.762 119.611 153.428C133.644 147.378 144.885 137.949 153.331 125.146C161.778 112.345 166 98.2944 166 82.9984C166 67.7024 161.779 53.6539 153.331 40.8535Z" fill="white"/>
</svg>
