<svg width="360" height="356" viewBox="0 0 360 356" fill="none" xmlns="http://www.w3.org/2000/svg">
<path fill-rule="evenodd" clip-rule="evenodd" d="M233.197 95.4491C234.483 94.0978 234.632 93.9531 235.052 93.6551C235.66 93.223 238.557 92.2773 238.902 92.3978C239.459 92.5931 241.117 95.3758 241.705 97.1021C242.235 98.6603 242.394 98.9024 243.353 99.6097C244.509 100.464 245.586 102.545 245.957 104.639C246.02 104.993 246.165 105.239 246.169 105.487C246.187 106.663 243.023 107.887 212.808 120.778C182.565 133.681 180.081 134.776 179.971 135.245C179.906 135.525 179.97 137.097 180.112 138.74C180.255 140.382 180.382 142.062 180.393 142.474L180.413 143.222L168.09 148.484L155.766 153.746L155.503 155.105C154.995 157.73 155.702 161.644 157.305 165.069L158.267 167.122L155.201 168.345C148.468 171.028 146.885 173.523 148.541 178.848C149.636 182.374 149.469 185.186 147.966 188.537C144.439 196.401 134.225 200.643 129.554 196.183C129.222 195.866 128.624 195.298 128.224 194.92C127.197 193.949 126.219 194.021 123.251 195.288C118.067 197.502 116.484 201.278 118.05 207.692C118.537 209.684 122.552 218.698 123.973 220.987C126.335 224.793 126.793 225.515 127.405 226.403C127.767 226.929 128.425 227.886 128.866 228.531C129.307 229.175 129.843 229.946 130.058 230.242C130.427 230.751 130.384 230.829 129.317 231.573C124.077 235.224 101.793 244.534 100.472 243.624C99.5948 243.019 96.4078 226.978 95.4428 218.308C94.3322 208.328 94.7128 200.932 96.6777 194.345C97.0926 192.954 97.3618 191.516 97.2759 191.15C97.1902 190.784 96.9469 189.629 96.7354 188.584C96.5243 187.539 96.2889 186.401 96.2117 186.056C95.9459 184.867 95.2633 181.368 95.2118 180.934C95.1574 180.475 95.94 179.851 98.7947 178.077C100.512 177.009 101.79 176.077 102.538 175.344C102.785 175.104 103.154 174.835 103.36 174.747C103.567 174.658 103.917 174.014 104.137 173.315C104.358 172.614 104.637 172 104.756 171.949C105.297 171.718 106.689 169.881 106.802 169.247C107.095 167.618 104.776 166.731 101.299 167.142C100.216 167.27 98.9631 167.41 98.5158 167.453C98.0682 167.496 97.5285 167.605 97.3173 167.695C97.0935 167.791 96.927 167.709 96.9198 167.5C96.8838 166.517 102.911 163.809 103.269 164.647C103.443 165.055 106.036 165.899 106.504 165.699C107.686 165.194 108.435 161.932 107.939 159.444C107.805 158.772 107.877 158.653 108.559 158.423C110.224 157.861 110.717 157.721 110.79 157.463C110.827 157.331 110.755 157.168 110.674 156.901C110.552 156.498 110.507 156.029 110.573 155.857C110.773 155.339 110.491 154.977 109.613 154.627C108.49 154.177 108.292 153.566 108.813 152.157C109.054 151.505 109.134 150.852 108.99 150.705C108.521 150.221 109.415 150.123 110.4 150.55C111.168 150.884 111.553 150.883 112.334 150.55C113.424 150.084 115.349 149.651 117.325 149.427C119.062 149.229 221.015 106.096 221.793 105.229C222.047 104.946 222.452 104.523 222.693 104.29C222.935 104.055 223.349 103.643 223.614 103.374C224.267 102.708 225.135 101.954 226.129 101.188C226.586 100.837 227.343 100.251 227.812 99.8871C228.282 99.5234 228.977 99.0932 229.357 98.9309C229.973 98.668 231.148 97.6024 233.197 95.4491ZM113.595 153.864C114.064 153.664 113.588 152.454 112.831 151.922C112.335 151.573 112.253 152.087 112.655 153.027C113.044 153.938 113.166 154.047 113.595 153.864ZM128.34 149.215C140.186 144.153 141.125 143.678 140.21 143.209C139.411 142.8 115.928 152.929 115.621 153.814C115.501 154.163 115.532 154.583 115.693 154.747C116.012 155.076 116.757 154.88 116.598 154.508C116.533 154.356 120.604 152.522 128.34 149.215ZM149.411 165.084C149.639 164.864 149.403 164.136 148.162 161.229C146.74 157.897 146.602 157.659 146.201 157.831C145.813 157.996 145.871 158.294 146.754 160.69C147.938 163.905 147.957 164.141 147.075 164.704C145.692 165.588 125.798 173.791 125.171 173.737C124.705 173.696 124.539 173.781 124.441 174.111C124.282 174.64 124.766 175.166 125.467 175.227C126.022 175.275 148.89 165.589 149.411 165.084ZM139.437 175.933C139.306 175.882 138.649 175.919 137.978 176.018C136.798 176.192 134.486 177.015 134.577 177.229C134.616 177.321 134.76 178.321 135.139 181.13C135.197 181.56 135.337 182.59 135.45 183.419C135.976 187.268 138.329 189.354 142.538 189.704C144.115 189.836 144.232 190.045 143.02 190.563C139.641 192.006 135.769 189.85 133.839 185.45C133.229 184.061 132.965 183.39 132.48 183.129C131.998 182.869 131.299 183.013 129.827 183.258C128.791 183.43 127.81 183.551 127.647 183.527C126.463 183.349 126.179 188.579 127.238 191.059C129.892 197.273 136.797 198.517 142.332 193.775C148.724 188.301 149.884 178.844 144.432 176.663C143.336 176.225 140.399 175.719 139.981 175.898C139.813 175.97 139.567 175.986 139.437 175.933Z" fill="white"/>
<path fill-rule="evenodd" clip-rule="evenodd" d="M145.789 88.1924C144.689 86.686 144.56 86.5232 144.182 86.1733C143.635 85.6661 140.885 84.3532 140.527 84.4281C139.949 84.5494 137.945 87.094 137.138 88.7297C136.411 90.2061 136.222 90.4256 135.18 91.0027C133.923 91.6999 132.585 93.624 131.946 95.6526C131.838 95.995 131.662 96.2203 131.626 96.466C131.456 97.6301 134.435 99.2529 162.726 115.949C191.043 132.659 193.364 134.067 193.412 134.546C193.441 134.833 193.174 136.383 192.82 137.993C192.465 139.604 192.123 141.253 192.058 141.659L191.941 142.399L203.479 149.213L215.017 156.027L215.102 157.408C215.266 160.077 214.058 163.866 212.025 167.055L210.806 168.966L213.687 170.575C220.016 174.108 221.262 176.787 218.931 181.852C217.389 185.207 217.19 188.017 218.246 191.534C220.725 199.789 230.304 205.318 235.513 201.501C235.883 201.23 236.55 200.743 236.996 200.42C238.14 199.59 239.1 199.789 241.879 201.43C246.733 204.296 247.814 208.246 245.429 214.403C244.689 216.315 239.54 224.733 237.835 226.819C234.999 230.286 234.452 230.943 233.73 231.744C233.303 232.219 232.527 233.083 232.006 233.665C231.486 234.247 230.854 234.941 230.602 235.208C230.17 235.664 230.203 235.747 231.165 236.623C235.888 240.922 256.778 253.04 258.206 252.309C259.154 251.822 264.392 236.329 266.472 227.857C268.865 218.104 269.446 210.721 268.351 203.936C268.119 202.502 268.039 201.042 268.171 200.69C268.304 200.338 268.694 199.225 269.039 198.216C269.384 197.207 269.765 196.109 269.886 195.777C270.304 194.632 271.434 191.252 271.541 190.828C271.654 190.379 270.959 189.659 268.358 187.53C266.793 186.249 265.648 185.16 265 184.336C264.787 184.066 264.455 183.751 264.262 183.637C264.069 183.523 263.806 182.839 263.678 182.117C263.549 181.394 263.353 180.749 263.24 180.682C262.734 180.383 261.592 178.381 261.561 177.738C261.483 176.085 263.897 175.505 267.291 176.364C268.348 176.63 269.573 176.931 270.011 177.032C270.449 177.133 270.97 177.311 271.168 177.428C271.377 177.551 271.553 177.492 271.587 177.285C271.75 176.315 266.124 172.85 265.661 173.634C265.435 174.016 262.755 174.517 262.317 174.259C261.21 173.605 260.89 170.273 261.704 167.871C261.924 167.221 261.868 167.094 261.222 166.778C259.643 166.004 259.173 165.803 259.134 165.537C259.114 165.401 259.206 165.249 259.322 164.994C259.495 164.611 259.6 164.151 259.557 163.972C259.426 163.433 259.752 163.111 260.668 162.877C261.84 162.576 262.115 161.997 261.781 160.532C261.627 159.854 261.632 159.196 261.793 159.068C262.322 158.65 261.448 158.436 260.416 158.733C259.611 158.964 259.229 158.914 258.498 158.482C257.478 157.879 255.625 157.201 253.694 156.722C251.997 156.301 156.489 100.327 155.83 99.3672C155.615 99.0537 155.268 98.5819 155.059 98.319C154.849 98.0552 154.493 97.5927 154.265 97.2915C153.703 96.5468 152.94 95.6866 152.054 94.7988C151.647 94.3907 150.972 93.7118 150.553 93.2904C150.135 92.8689 149.502 92.3524 149.146 92.1423C148.569 91.8018 147.542 90.5931 145.789 88.1924ZM256.819 161.605C256.379 161.346 257.007 160.208 257.827 159.778C258.364 159.496 258.379 160.016 257.859 160.897C257.355 161.75 257.22 161.842 256.819 161.605ZM242.8 155.086C231.709 148.532 230.84 147.939 231.808 147.593C232.653 147.291 254.626 160.376 254.815 161.293C254.89 161.655 254.804 162.067 254.624 162.209C254.264 162.494 253.551 162.203 253.757 161.855C253.841 161.713 250.043 159.366 242.8 155.086ZM219.851 168.092C219.653 167.844 219.981 167.153 221.588 164.431C223.43 161.312 223.598 161.094 223.973 161.315C224.336 161.53 224.24 161.818 223.055 164.079C221.464 167.114 221.414 167.345 222.216 168.018C223.473 169.074 242.137 179.783 242.766 179.811C243.234 179.831 243.387 179.937 243.442 180.276C243.531 180.822 242.983 181.281 242.28 181.251C241.723 181.226 220.303 168.66 219.851 168.092ZM228.336 180.142C228.473 180.107 229.119 180.229 229.771 180.414C230.919 180.74 233.105 181.855 232.987 182.056C232.936 182.142 232.664 183.115 231.924 185.851C231.811 186.27 231.539 187.273 231.32 188.081C230.299 191.829 227.697 193.593 223.478 193.395C221.897 193.321 221.753 193.513 222.888 194.184C226.052 196.052 230.171 194.416 232.654 190.303C233.439 189.005 233.788 188.374 234.302 188.177C234.814 187.982 235.488 188.216 236.916 188.649C237.921 188.954 238.878 189.201 239.043 189.198C240.24 189.175 239.844 194.397 238.473 196.719C235.037 202.538 228.029 202.877 223.154 197.458C217.525 191.203 217.6 181.675 223.288 180.218C224.432 179.925 227.409 179.805 227.801 180.036C227.959 180.129 228.2 180.177 228.336 180.142Z" fill="white"/>
</svg>
